<svg width="79" height="79" viewBox="0 0 79 79" fill="none" xmlns="http://www.w3.org/2000/svg">
<g filter="url(#filter0_b_18341_13495)">
<path d="M0 20.5002C0 9.45455 8.95431 0.500244 20 0.500244H58.7061C69.7517 0.500244 78.7061 9.45455 78.7061 20.5002V59.0005C78.7061 70.0462 69.7517 79.0005 58.7061 79.0005H20C8.9543 79.0005 0 70.0462 0 59.0005V20.5002Z" fill="url(#paint0_radial_18341_13495)" fill-opacity="0.5"/>
<path d="M0.5 20.5002C0.5 9.73069 9.23045 1.00024 20 1.00024H58.7061C69.4756 1.00024 78.2061 9.73069 78.2061 20.5002V59.0005C78.2061 69.77 69.4756 78.5005 58.7061 78.5005H20C9.23045 78.5005 0.5 69.77 0.5 59.0005V20.5002Z" stroke="url(#paint1_radial_18341_13495)" stroke-opacity="0.5"/>
</g>
<g clip-path="url(#clip0_18341_13495)">
<path d="M52.314 20.7451H47.6936C46.4743 19.337 44.6775 18.4437 42.6753 18.4437H36.0308C34.0285 18.4437 32.2317 19.337 31.0125 20.7451H26.3921C24.3566 20.7451 22.7007 22.4044 22.7007 24.4437V56.7451C22.7007 58.7845 24.3566 60.4437 26.3921 60.4437H52.314C54.3494 60.4437 56.0054 58.7845 56.0054 56.7451V24.4437C56.0054 22.4043 54.3494 20.7451 52.314 20.7451ZM36.0308 20.9095H42.6753C44.5765 20.9095 46.1555 22.1822 46.6743 23.8684H32.0317C32.5497 22.1852 34.1266 20.9095 36.0308 20.9095ZM53.5444 56.7451C53.5444 57.4249 52.9924 57.9779 52.314 57.9779H26.3921C25.7136 57.9779 25.1616 57.4249 25.1616 56.7451V24.4437C25.1616 23.7639 25.7136 23.2109 26.3921 23.2109H29.6607C29.4831 23.8105 29.3862 24.4446 29.3862 25.1013C29.3862 25.7822 29.9372 26.3341 30.6167 26.3341H48.0894C48.7689 26.3341 49.3198 25.7822 49.3198 25.1013C49.3198 24.4446 49.2229 23.8105 49.0453 23.2109H52.314C52.9924 23.2109 53.5444 23.7639 53.5444 24.4437V56.7451Z" fill="#AA832F"/>
<path d="M33.2877 42.9419L31.4781 44.7549L31.0356 44.3116C30.5551 43.8301 29.776 43.8301 29.2955 44.3116C28.8149 44.7931 28.8149 45.5737 29.2955 46.0551L30.608 47.3702C31.0884 47.8516 31.8676 47.8517 32.3481 47.3702L35.0277 44.6853C35.5083 44.2038 35.5083 43.4232 35.0277 42.9418C34.5473 42.4603 33.7681 42.4603 33.2877 42.9419Z" fill="#AA832F"/>
<path d="M48.4585 43.9232H38.5327C37.8532 43.9232 37.3022 44.4752 37.3022 45.156C37.3022 45.8369 37.8532 46.3889 38.5327 46.3889H48.4585C49.138 46.3889 49.689 45.8369 49.689 45.156C49.689 44.4752 49.138 43.9232 48.4585 43.9232Z" fill="#AA832F"/>
<path d="M33.2877 50.0103L31.4781 51.8234L31.0356 51.3801C30.5551 50.8986 29.776 50.8986 29.2955 51.3801C28.8149 51.8615 28.8149 52.6421 29.2955 53.1236L30.608 54.4386C31.0884 54.9201 31.8676 54.9202 32.3481 54.4386L35.0277 51.7537C35.5083 51.2723 35.5083 50.4917 35.0277 50.0103C34.5473 49.5288 33.7681 49.5288 33.2877 50.0103Z" fill="#AA832F"/>
<path d="M48.4585 50.9917H38.5327C37.8532 50.9917 37.3022 51.5437 37.3022 52.2245C37.3022 52.9054 37.8532 53.4574 38.5327 53.4574H48.4585C49.138 53.4574 49.689 52.9054 49.689 52.2245C49.689 51.5437 49.138 50.9917 48.4585 50.9917Z" fill="#AA832F"/>
<path d="M41.6997 38.2196L45.5054 34.4064V34.5534C45.5054 35.2342 46.0563 35.7862 46.7359 35.7862C47.4154 35.7862 47.9663 35.2342 47.9663 34.5534C47.9663 31.066 47.9721 31.3906 47.9522 31.2529C47.8652 30.6497 47.3491 30.197 46.7355 30.1972H43.6187C42.9391 30.1972 42.3882 30.7492 42.3882 31.43C42.3882 32.1109 42.9391 32.6629 43.6187 32.6629H43.7653L40.8296 35.6043L37.1059 31.8733C36.6254 31.3918 35.8463 31.3918 35.3658 31.8733L30.9361 36.3117C30.4555 36.7931 30.4555 37.5737 30.9361 38.0552C31.4165 38.5367 32.1957 38.5367 32.6762 38.0552L36.2359 34.4886L39.9596 38.2196C40.44 38.701 41.2192 38.7011 41.6997 38.2196Z" fill="#AA832F"/>
</g>
<defs>
<filter id="filter0_b_18341_13495" x="-5" y="-4.49976" width="88.7061" height="88.5002" filterUnits="userSpaceOnUse" color-interpolation-filters="sRGB">
<feFlood flood-opacity="0" result="BackgroundImageFix"/>
<feGaussianBlur in="BackgroundImageFix" stdDeviation="2.5"/>
<feComposite in2="SourceAlpha" operator="in" result="effect1_backgroundBlur_18341_13495"/>
<feBlend mode="normal" in="SourceGraphic" in2="effect1_backgroundBlur_18341_13495" result="shape"/>
</filter>
<radialGradient id="paint0_radial_18341_13495" cx="0" cy="0" r="1" gradientUnits="userSpaceOnUse" gradientTransform="translate(6.5838 0.500245) rotate(47.9449) scale(117.499 85.3716)">
<stop stop-color="white" stop-opacity="0.36"/>
<stop offset="1" stop-color="white" stop-opacity="0"/>
</radialGradient>
<radialGradient id="paint1_radial_18341_13495" cx="0" cy="0" r="1" gradientUnits="userSpaceOnUse" gradientTransform="translate(6.5838 0.500245) rotate(47.9449) scale(117.499 85.3716)">
<stop stop-color="white" stop-opacity="0.36"/>
<stop offset="1" stop-color="white" stop-opacity="0"/>
</radialGradient>
<clipPath id="clip0_18341_13495">
<rect width="42" height="42" fill="white" transform="translate(18.353 18.4437)"/>
</clipPath>
</defs>
</svg>
