<svg width="79" height="79" viewBox="0 0 79 79" fill="none" xmlns="http://www.w3.org/2000/svg">
<g filter="url(#filter0_b_18341_13475)">
<path d="M0 20.5002C0 9.45455 8.95431 0.500244 20 0.500244H58.7061C69.7517 0.500244 78.7061 9.45455 78.7061 20.5002V59.0005C78.7061 70.0462 69.7517 79.0005 58.7061 79.0005H20C8.9543 79.0005 0 70.0462 0 59.0005V20.5002Z" fill="url(#paint0_radial_18341_13475)" fill-opacity="0.5"/>
<path d="M0.5 20.5002C0.5 9.73069 9.23045 1.00024 20 1.00024H58.7061C69.4756 1.00024 78.2061 9.73069 78.2061 20.5002V59.0005C78.2061 69.77 69.4756 78.5005 58.7061 78.5005H20C9.23045 78.5005 0.5 69.77 0.5 59.0005V20.5002Z" stroke="url(#paint1_radial_18341_13475)" stroke-opacity="0.5"/>
</g>
<path d="M33.9075 53.7687H24.615C23.0662 53.7687 21.8062 52.514 21.8062 50.9731V33.6087H56.1806V38.2169C56.1806 38.8692 56.7095 39.3982 57.3619 39.3982C58.0142 39.3982 58.5431 38.8692 58.5431 38.2169V27.4544C58.5431 24.6102 56.2292 22.2963 53.385 22.2963H24.615C21.7642 22.2963 19.4437 24.6102 19.4437 27.4544V50.9744C19.4437 53.8186 21.7642 56.1325 24.615 56.1325H33.9075C34.5598 56.1325 35.0887 55.6036 35.0887 54.9513C35.0887 54.299 34.5598 53.7687 33.9075 53.7687ZM24.615 24.6575H53.385C54.9272 24.6575 56.1806 25.9122 56.1806 27.4531V31.2449H21.8062V27.4544C21.8062 25.9122 23.0662 24.6575 24.615 24.6575Z" fill="#AA832F"/>
<path d="M26.2635 29.078C26.8895 29.078 27.3975 28.57 27.3975 27.944C27.3975 27.3179 26.8895 26.8087 26.2635 26.8087C25.6374 26.8087 25.1295 27.3166 25.1295 27.9427C25.1295 28.5687 25.6361 29.078 26.2635 29.078Z" fill="#AA832F"/>
<path d="M30.26 29.078C30.8861 29.078 31.394 28.57 31.394 27.944C31.394 27.3179 30.8861 26.8087 30.26 26.8087C29.634 26.8087 29.126 27.3166 29.126 27.9427C29.126 28.5687 29.6327 29.078 30.26 29.078Z" fill="#AA832F"/>
<path d="M34.2566 29.078C34.8827 29.078 35.3906 28.57 35.3906 27.944C35.3906 27.3179 34.8827 26.81 34.2566 26.81C33.6306 26.81 33.1226 27.3179 33.1226 27.944C33.1226 28.57 33.6292 29.078 34.2566 29.078Z" fill="#AA832F"/>
<path d="M57.8803 43.2254C56.5888 42.0599 54.7185 41.3918 52.751 41.3918C51.0277 41.3918 49.374 41.9103 48.1271 42.812C46.8802 41.909 45.2265 41.3918 43.5032 41.3918C41.5357 41.3918 39.6654 42.0599 38.3752 43.2241C37.95 43.606 37.7072 44.1678 37.7072 44.7637V53.1413C37.7072 53.8777 38.0812 54.5418 38.7086 54.9198C39.353 55.3083 40.1418 55.328 40.8138 54.9697C41.5974 54.5549 42.528 54.3357 43.5045 54.3357C45.0217 54.3357 46.4274 54.8699 47.2674 55.7637C47.4905 56.0013 47.8029 56.1365 48.1284 56.1365C48.4539 56.1365 48.7663 56.0013 48.9894 55.7637C49.8294 54.8686 51.2351 54.3357 52.7523 54.3357C53.7288 54.3357 54.6594 54.5549 55.443 54.9697C56.1176 55.3267 56.9038 55.3083 57.5482 54.9198C58.1756 54.5418 58.5497 53.8777 58.5497 53.1413V44.7637C58.5483 44.1678 58.3042 43.6073 57.8803 43.2254ZM40.0683 52.7043V44.8831C40.9293 44.1652 42.171 43.7557 43.5032 43.7557C44.8537 43.7557 46.0927 44.1967 46.9458 44.9212V52.7253C45.9116 52.2488 44.7277 51.9772 43.5032 51.9772C42.2865 51.9745 41.1078 52.2265 40.0683 52.7043ZM56.1858 52.7043C54.099 51.7435 51.3887 51.8078 49.3083 52.7384V44.9198C50.1615 44.1953 51.4005 43.7543 52.751 43.7543C54.0819 43.7543 55.3235 44.1638 56.1858 44.8818V52.7043Z" fill="#AA832F"/>
<defs>
<filter id="filter0_b_18341_13475" x="-5" y="-4.49976" width="88.7061" height="88.5002" filterUnits="userSpaceOnUse" color-interpolation-filters="sRGB">
<feFlood flood-opacity="0" result="BackgroundImageFix"/>
<feGaussianBlur in="BackgroundImageFix" stdDeviation="2.5"/>
<feComposite in2="SourceAlpha" operator="in" result="effect1_backgroundBlur_18341_13475"/>
<feBlend mode="normal" in="SourceGraphic" in2="effect1_backgroundBlur_18341_13475" result="shape"/>
</filter>
<radialGradient id="paint0_radial_18341_13475" cx="0" cy="0" r="1" gradientUnits="userSpaceOnUse" gradientTransform="translate(6.5838 0.500245) rotate(47.9449) scale(117.499 85.3716)">
<stop stop-color="white" stop-opacity="0.36"/>
<stop offset="1" stop-color="white" stop-opacity="0"/>
</radialGradient>
<radialGradient id="paint1_radial_18341_13475" cx="0" cy="0" r="1" gradientUnits="userSpaceOnUse" gradientTransform="translate(6.5838 0.500245) rotate(47.9449) scale(117.499 85.3716)">
<stop stop-color="white" stop-opacity="0.36"/>
<stop offset="1" stop-color="white" stop-opacity="0"/>
</radialGradient>
</defs>
</svg>
